<svg xmlns="http://www.w3.org/2000/svg" viewBox="0 0 120 320" fill="none">
  <defs>
    <linearGradient id="brush-bristle" x1="60" y1="6" x2="60" y2="84" gradientUnits="userSpaceOnUse">
      <stop offset="0%" stop-color="#F5EDE6"/>
      <stop offset="65%" stop-color="#C7BDB8"/>
      <stop offset="100%" stop-color="#8A6B72"/>
    </linearGradient>
    <linearGradient id="brush-ferrule" x1="36" y1="84" x2="84" y2="128" gradientUnits="userSpaceOnUse">
      <stop offset="0%" stop-color="#F1E4D0"/>
      <stop offset="45%" stop-color="#B8935B"/>
      <stop offset="100%" stop-color="#8C6B3E"/>
    </linearGradient>
    <linearGradient id="brush-handle" x1="60" y1="128" x2="60" y2="316" gradientUnits="userSpaceOnUse">
      <stop offset="0%" stop-color="#E7C9A9"/>
      <stop offset="100%" stop-color="#B8935B"/>
    </linearGradient>
  </defs>

  <path
    d="M60 6C40 6 26 24 24 46c-2 16 3 30 12 38h48c9-8 14-22 12-38C94 24 80 6 60 6Z"
    fill="url(#brush-bristle)"
  />

  <path d="M36 84h48l-4 44H40Z" fill="url(#brush-ferrule)"/>
  <path d="M40 97h40" stroke="#FBF7F2" stroke-width="1.5" opacity="0.5" stroke-linecap="round"/>
  <path d="M41.5 111h37" stroke="#FBF7F2" stroke-width="1.5" opacity="0.35" stroke-linecap="round"/>

  <path
    d="M40 128h40l-8 172c-.6 9-6.5 16-12 16s-11.4-7-12-16Z"
    fill="url(#brush-handle)"
  />
</svg>
